<svg xmlns="http://www.w3.org/2000/svg" viewBox="0 0 48 48" width="40" height="40">
    <path fill="#25D366" d="M24 4C13.5 4 5 12.5 5 23c0 4 1 7.8 3 11.2L4 44l10.2-3c3.3 2 7.1 3 11 3 10.5 0 19-8.5 19-19S34.5 4 24 4z"/>
    <path fill="#FFF" d="M24 9c-7.7 0-14 6.3-14 14 0 2.5.7 4.9 1.9 7L10 38l7.2-1.9c2 1.1 4.3 1.7 6.8 1.7 7.7 0 14-6.3 14-14S31.7 9 24 9zm7.8 20.5c-.3.8-1.5 1.5-2.4 1.7-.6.1-1.3.2-2.1-.1-.5-.2-1.1-.4-1.7-.7-3-1.3-5.2-3.5-6.7-6.4-.3-.6-.5-1.2-.7-1.7-.3-.8-.2-1.5-.1-2.1.2-.9.9-2.1 1.7-2.4.2-.1.4-.1.6-.1.2 0 .4 0 .6.1h.5c.2 0 .4.1.5.4.2.4.7 1.7.8 1.8.1.1.1.3 0 .5-.1.2-.2.3-.3.5-.1.1-.2.2-.3.4-.1.1-.2.2-.3.3-.1.1-.2.2-.1.4.4.8 1 1.5 1.6 2.1.6.6 1.3 1.1 2.1 1.6.2.1.3.1.4 0 .1-.1.2-.2.3-.3.1-.1.2-.2.4-.3.2-.1.3-.2.5-.3.2-.1.4-.1.5 0 .1.1 1.4.6 1.8.8.3.1.4.2.4.5v.5c0 .2 0 .4-.1.6z"/>
</svg>